<svg width="24" height="24" viewBox="0 0 24 24" fill="none" xmlns="http://www.w3.org/2000/svg">
  <g>
    <rect width="24" height="24" fill="none"/>
    <path d="M12 2C8.13 2 5 5.13 5 9c0 2.38 1.19 4.47 3 5.74V22h8v-7.26c1.81-1.27 3-3.36 3-5.74 0-3.87-3.13-7-7-7zm0 2c2.76 0 5 2.24 5 5 0 1.93-1.07 3.63-2.67 4.47L12 13.1l-2.33-1.63C8.07 10.63 7 8.93 7 7c0-2.76 2.24-5 5-5z" fill="#fff"/>
    <path d="M12 4a5 5 0 00-5 5c0 1.93 1.07 3.63 2.67 4.47L12 13.1l2.33-1.63C15.93 12.63 17 10.93 17 9a5 5 0 00-5-5z" fill="#7F53AC"/>
  </g>
</svg>
